<?xml version="1.0" encoding="utf-8"?>
<!-- Generator: Adobe Illustrator 25.4.1, SVG Export Plug-In . SVG Version: 6.00 Build 0)  -->
<svg version="1.1" id="Layer_1" xmlns="http://www.w3.org/2000/svg" xmlns:xlink="http://www.w3.org/1999/xlink" x="0px" y="0px"
	 viewBox="0 0 792 612" style="enable-background:new 0 0 792 612;" xml:space="preserve">
<style type="text/css">
	.st0{fill:none;stroke:#FF0000;stroke-linecap:round;stroke-miterlimit:10;}
</style>
<g>
	<path class="st0" d="M-4,156h300"/>
	<path class="st0" d="M-4,161h300"/>
	<path class="st0" d="M-4,166h300"/>
	<path class="st0" d="M-4,171h300"/>
	<path class="st0" d="M-4,176h300"/>
	<path class="st0" d="M-4,181h300"/>
	<path class="st0" d="M-4,186h300"/>
	<path class="st0" d="M-4,191h300"/>
	<path class="st0" d="M-4,196h300"/>
	<path class="st0" d="M-4,201h300"/>
	<path class="st0" d="M-4,206h300"/>
	<path class="st0" d="M-4,211h300"/>
	<path class="st0" d="M-4,216h300"/>
	<path class="st0" d="M-4,221h300"/>
	<path class="st0" d="M-4,226h300"/>
	<path class="st0" d="M-4,231h300"/>
	<path class="st0" d="M-4,236h300"/>
	<path class="st0" d="M-4,241h300"/>
	<path class="st0" d="M-4,246h300"/>
	<path class="st0" d="M-4,251h300"/>
	<path class="st0" d="M-4,256h300"/>
	<path class="st0" d="M-4,261h300"/>
	<path class="st0" d="M-4,266h300"/>
	<path class="st0" d="M-4,271h300"/>
	<path class="st0" d="M-4,276h300"/>
	<path class="st0" d="M-4,281h300"/>
	<path class="st0" d="M-4,286h300"/>
	<path class="st0" d="M-4,291h300"/>
	<path class="st0" d="M-4,296h300"/>
	<path class="st0" d="M-4,301h300"/>
	<path class="st0" d="M-4,306h300"/>
	<path class="st0" d="M-4,311h300"/>
	<path class="st0" d="M-4,316h300"/>
	<path class="st0" d="M-4,321h300"/>
	<path class="st0" d="M-4,326h300"/>
	<path class="st0" d="M-4,331h300"/>
	<path class="st0" d="M-4,336h300"/>
	<path class="st0" d="M-4,341h300"/>
	<path class="st0" d="M-4,346h300"/>
	<path class="st0" d="M-4,351h300"/>
	<path class="st0" d="M-4,356h300"/>
	<path class="st0" d="M-4,361h300"/>
	<path class="st0" d="M-4,366h300"/>
	<path class="st0" d="M-4,371h300"/>
	<path class="st0" d="M-4,376h300"/>
	<path class="st0" d="M-4,381h300"/>
	<path class="st0" d="M-4,386h300"/>
	<path class="st0" d="M-4,391h300"/>
	<path class="st0" d="M-4,396h300"/>
	<path class="st0" d="M-4,401h300"/>
	<path class="st0" d="M-4,406h300"/>
	<path class="st0" d="M-4,411h300"/>
	<path class="st0" d="M-4,416h300"/>
	<path class="st0" d="M-4,421h300"/>
	<path class="st0" d="M-4,426h300"/>
	<path class="st0" d="M-4,431h300"/>
	<path class="st0" d="M-4,436h300"/>
	<path class="st0" d="M-4,441h300"/>
	<path class="st0" d="M-4,446h300"/>
	<path class="st0" d="M-4,451h300"/>
	<path class="st0" d="M-4,456h300"/>
	<path class="st0" d="M-4,461h300"/>
	<path class="st0" d="M-4,466h300"/>
	<path class="st0" d="M-4,471h300"/>
	<path class="st0" d="M-4,476h300"/>
	<path class="st0" d="M-4,481h300"/>
	<path class="st0" d="M-4,486h300"/>
	<path class="st0" d="M-4,491h300"/>
	<path class="st0" d="M-4,496h300"/>
	<path class="st0" d="M-4,501h300"/>
	<path class="st0" d="M-4,506h300"/>
	<path class="st0" d="M96,56h200"/>
	<path class="st0" d="M196,56l100,250"/>
	<path class="st0" d="M296,256v10"/>
	<path class="st0" d="M546,306L96,556"/>
	<path class="st0" d="M96,61l205-5"/>
	<path class="st0" d="M196,61l105,245"/>
	<path class="st0" d="M296,261l5,5"/>
	<path class="st0" d="M546,311L101,556"/>
	<path class="st0" d="M96,66l210-10"/>
	<path class="st0" d="M196,66l110,240"/>
	<path class="st0" d="M296,266h10"/>
	<path class="st0" d="M546,316L106,556"/>
	<path class="st0" d="M96,71l215-15"/>
	<path class="st0" d="M196,71l115,235"/>
	<path class="st0" d="M296,271l15-5"/>
	<path class="st0" d="M546,321L111,556"/>
	<path class="st0" d="M96,76l220-20"/>
	<path class="st0" d="M196,76l120,230"/>
	<path class="st0" d="M296,276l20-10"/>
	<path class="st0" d="M546,326L116,556"/>
	<path class="st0" d="M96,81l225-25"/>
	<path class="st0" d="M196,81l125,225"/>
	<path class="st0" d="M296,281l25-15"/>
	<path class="st0" d="M546,331L121,556"/>
	<path class="st0" d="M96,86l230-30"/>
	<path class="st0" d="M196,86l130,220"/>
	<path class="st0" d="M296,286l30-20"/>
	<path class="st0" d="M546,336L126,556"/>
	<path class="st0" d="M96,91l235-35"/>
	<path class="st0" d="M196,91l135,215"/>
	<path class="st0" d="M296,291l35-25"/>
	<path class="st0" d="M546,341L131,556"/>
	<path class="st0" d="M96,96l240-40"/>
	<path class="st0" d="M196,96l140,210"/>
	<path class="st0" d="M296,296l40-30"/>
	<path class="st0" d="M546,346L136,556"/>
	<path class="st0" d="M96,101l245-45"/>
	<path class="st0" d="M196,101l145,205"/>
	<path class="st0" d="M296,301l45-35"/>
	<path class="st0" d="M546,351L141,556"/>
	<path class="st0" d="M96,106l250-50"/>
	<path class="st0" d="M196,106l150,200"/>
	<path class="st0" d="M296,306l50-40"/>
	<path class="st0" d="M546,356L146,556"/>
	<path class="st0" d="M96,111l255-55"/>
	<path class="st0" d="M196,111l155,195"/>
	<path class="st0" d="M296,311l55-45"/>
	<path class="st0" d="M546,361L151,556"/>
	<path class="st0" d="M96,116l260-60"/>
	<path class="st0" d="M196,116l160,190"/>
	<path class="st0" d="M296,316l60-50"/>
	<path class="st0" d="M546,366L156,556"/>
	<path class="st0" d="M96,121l265-65"/>
	<path class="st0" d="M196,121l165,185"/>
	<path class="st0" d="M296,321l65-55"/>
	<path class="st0" d="M546,371L161,556"/>
	<path class="st0" d="M96,126l270-70"/>
	<path class="st0" d="M196,126l170,180"/>
	<path class="st0" d="M296,326l70-60"/>
	<path class="st0" d="M546,376L166,556"/>
	<path class="st0" d="M96,131l275-75"/>
	<path class="st0" d="M196,131l175,175"/>
	<path class="st0" d="M296,331l75-65"/>
	<path class="st0" d="M546,381L171,556"/>
	<path class="st0" d="M96,136l280-80"/>
	<path class="st0" d="M196,136l180,170"/>
	<path class="st0" d="M296,336l80-70"/>
	<path class="st0" d="M546,386L176,556"/>
	<path class="st0" d="M96,141l285-85"/>
	<path class="st0" d="M196,141l185,165"/>
	<path class="st0" d="M296,341l85-75"/>
	<path class="st0" d="M546,391L181,556"/>
	<path class="st0" d="M96,146l290-90"/>
	<path class="st0" d="M196,146l190,160"/>
	<path class="st0" d="M296,346l90-80"/>
	<path class="st0" d="M546,396L186,556"/>
	<path class="st0" d="M96,151l295-95"/>
	<path class="st0" d="M196,151l195,155"/>
	<path class="st0" d="M296,351l95-85"/>
	<path class="st0" d="M546,401L191,556"/>
	<path class="st0" d="M96,156L396,56"/>
	<path class="st0" d="M196,156l200,150"/>
	<path class="st0" d="M296,356l100-90"/>
	<path class="st0" d="M546,406L196,556"/>
	<path class="st0" d="M96,161L401,56"/>
	<path class="st0" d="M196,161l205,145"/>
	<path class="st0" d="M296,361l105-95"/>
	<path class="st0" d="M546,411L201,556"/>
	<path class="st0" d="M96,166L406,56"/>
	<path class="st0" d="M196,166l210,140"/>
	<path class="st0" d="M296,366l110-100"/>
	<path class="st0" d="M546,416L206,556"/>
	<path class="st0" d="M96,171L411,56"/>
	<path class="st0" d="M196,171l215,135"/>
	<path class="st0" d="M296,371l115-105"/>
	<path class="st0" d="M546,421L211,556"/>
	<path class="st0" d="M96,176L416,56"/>
	<path class="st0" d="M196,176l220,130"/>
	<path class="st0" d="M296,376l120-110"/>
	<path class="st0" d="M546,426L216,556"/>
	<path class="st0" d="M96,181L421,56"/>
	<path class="st0" d="M196,181l225,125"/>
	<path class="st0" d="M296,381l125-115"/>
	<path class="st0" d="M546,431L221,556"/>
	<path class="st0" d="M96,186L426,56"/>
	<path class="st0" d="M196,186l230,120"/>
	<path class="st0" d="M296,386l130-120"/>
	<path class="st0" d="M546,436L226,556"/>
	<path class="st0" d="M96,191L431,56"/>
	<path class="st0" d="M196,191l235,115"/>
	<path class="st0" d="M296,391l135-125"/>
	<path class="st0" d="M546,441L231,556"/>
	<path class="st0" d="M96,196L436,56"/>
	<path class="st0" d="M196,196l240,110"/>
	<path class="st0" d="M296,396l140-130"/>
	<path class="st0" d="M546,446L236,556"/>
	<path class="st0" d="M96,201L441,56"/>
	<path class="st0" d="M196,201l245,105"/>
	<path class="st0" d="M296,401l145-135"/>
	<path class="st0" d="M546,451L241,556"/>
	<path class="st0" d="M96,206L446,56"/>
	<path class="st0" d="M196,206l250,100"/>
	<path class="st0" d="M296,406l150-140"/>
	<path class="st0" d="M546,456L246,556"/>
	<path class="st0" d="M96,211L451,56"/>
	<path class="st0" d="M196,211l255,95"/>
	<path class="st0" d="M296,411l155-145"/>
	<path class="st0" d="M546,461l-295,95"/>
	<path class="st0" d="M96,216L456,56"/>
	<path class="st0" d="M196,216l260,90"/>
	<path class="st0" d="M296,416l160-150"/>
	<path class="st0" d="M546,466l-290,90"/>
	<path class="st0" d="M96,221L461,56"/>
	<path class="st0" d="M196,221l265,85"/>
	<path class="st0" d="M296,421l165-155"/>
	<path class="st0" d="M546,471l-285,85"/>
	<path class="st0" d="M96,226L466,56"/>
	<path class="st0" d="M196,226l270,80"/>
	<path class="st0" d="M296,426l170-160"/>
	<path class="st0" d="M546,476l-280,80"/>
	<path class="st0" d="M96,231L471,56"/>
	<path class="st0" d="M196,231l275,75"/>
	<path class="st0" d="M296,431l175-165"/>
	<path class="st0" d="M546,481l-275,75"/>
	<path class="st0" d="M96,236L476,56"/>
	<path class="st0" d="M196,236l280,70"/>
	<path class="st0" d="M296,436l180-170"/>
	<path class="st0" d="M546,486l-270,70"/>
	<path class="st0" d="M96,241L481,56"/>
	<path class="st0" d="M196,241l285,65"/>
	<path class="st0" d="M296,441l185-175"/>
	<path class="st0" d="M546,491l-265,65"/>
	<path class="st0" d="M96,246L486,56"/>
	<path class="st0" d="M196,246l290,60"/>
	<path class="st0" d="M296,446l190-180"/>
	<path class="st0" d="M546,496l-260,60"/>
	<path class="st0" d="M96,251L491,56"/>
	<path class="st0" d="M196,251l295,55"/>
	<path class="st0" d="M296,451l195-185"/>
	<path class="st0" d="M546,501l-255,55"/>
	<path class="st0" d="M96,256L496,56"/>
	<path class="st0" d="M196,256l300,50"/>
	<path class="st0" d="M296,456l200-190"/>
	<path class="st0" d="M546,506l-250,50"/>
	<path class="st0" d="M96,261L501,56"/>
	<path class="st0" d="M196,261l305,45"/>
	<path class="st0" d="M296,461l205-195"/>
	<path class="st0" d="M546,511l-245,45"/>
	<path class="st0" d="M96,266L506,56"/>
	<path class="st0" d="M196,266l310,40"/>
	<path class="st0" d="M296,466l210-200"/>
	<path class="st0" d="M546,516l-240,40"/>
	<path class="st0" d="M96,271L511,56"/>
	<path class="st0" d="M196,271l315,35"/>
	<path class="st0" d="M296,471l215-205"/>
	<path class="st0" d="M546,521l-235,35"/>
	<path class="st0" d="M96,276L516,56"/>
	<path class="st0" d="M196,276l320,30"/>
	<path class="st0" d="M296,476l220-210"/>
	<path class="st0" d="M546,526l-230,30"/>
	<path class="st0" d="M96,281L521,56"/>
	<path class="st0" d="M196,281l325,25"/>
	<path class="st0" d="M296,481l225-215"/>
	<path class="st0" d="M546,531l-225,25"/>
	<path class="st0" d="M96,286L526,56"/>
	<path class="st0" d="M196,286l330,20"/>
	<path class="st0" d="M296,486l230-220"/>
	<path class="st0" d="M546,536l-220,20"/>
	<path class="st0" d="M96,291L531,56"/>
	<path class="st0" d="M196,291l335,15"/>
	<path class="st0" d="M296,491l235-225"/>
	<path class="st0" d="M546,541l-215,15"/>
	<path class="st0" d="M96,296L536,56"/>
	<path class="st0" d="M196,296l340,10"/>
	<path class="st0" d="M296,496l240-230"/>
	<path class="st0" d="M546,546l-210,10"/>
	<path class="st0" d="M96,301L541,56"/>
	<path class="st0" d="M196,301l345,5"/>
	<path class="st0" d="M296,501l245-235"/>
	<path class="st0" d="M546,551l-205,5"/>
	<path class="st0" d="M96,306L546,56"/>
	<path class="st0" d="M196,306h350"/>
	<path class="st0" d="M296,506l250-240"/>
	<path class="st0" d="M546,556H346"/>
	<path class="st0" d="M396,56l250,100"/>
	<path class="st0" d="M796,306L796,306"/>
	<path class="st0" d="M396,61l245,95"/>
	<path class="st0" d="M796,311l-5-5"/>
	<path class="st0" d="M396,66l240,90"/>
	<path class="st0" d="M796,316l-10-10"/>
	<path class="st0" d="M396,71l235,85"/>
	<path class="st0" d="M796,321l-15-15"/>
	<path class="st0" d="M396,76l230,80"/>
	<path class="st0" d="M796,326l-20-20"/>
	<path class="st0" d="M396,81l225,75"/>
	<path class="st0" d="M796,331l-25-25"/>
	<path class="st0" d="M396,86l220,70"/>
	<path class="st0" d="M796,336l-30-30"/>
	<path class="st0" d="M396,91l215,65"/>
	<path class="st0" d="M796,341l-35-35"/>
	<path class="st0" d="M396,96l210,60"/>
	<path class="st0" d="M796,346l-40-40"/>
	<path class="st0" d="M396,101l205,55"/>
	<path class="st0" d="M796,351l-45-45"/>
	<path class="st0" d="M396,106l200,50"/>
	<path class="st0" d="M796,356l-50-50"/>
	<path class="st0" d="M396,111l195,45"/>
	<path class="st0" d="M796,361l-55-55"/>
	<path class="st0" d="M396,116l190,40"/>
	<path class="st0" d="M796,366l-60-60"/>
	<path class="st0" d="M396,121l185,35"/>
	<path class="st0" d="M796,371l-65-65"/>
	<path class="st0" d="M396,126l180,30"/>
	<path class="st0" d="M796,376l-70-70"/>
	<path class="st0" d="M396,131l175,25"/>
	<path class="st0" d="M796,381l-75-75"/>
	<path class="st0" d="M396,136l170,20"/>
	<path class="st0" d="M796,386l-80-80"/>
	<path class="st0" d="M396,141l165,15"/>
	<path class="st0" d="M796,391l-85-85"/>
	<path class="st0" d="M396,146l160,10"/>
	<path class="st0" d="M796,396l-90-90"/>
	<path class="st0" d="M396,151l155,5"/>
	<path class="st0" d="M796,401l-95-95"/>
	<path class="st0" d="M396,156h150"/>
	<path class="st0" d="M796,406L696,306"/>
	<path class="st0" d="M396,161l145-5"/>
	<path class="st0" d="M796,411L691,306"/>
	<path class="st0" d="M396,166l140-10"/>
	<path class="st0" d="M796,416L686,306"/>
	<path class="st0" d="M396,171l135-15"/>
	<path class="st0" d="M796,421L681,306"/>
	<path class="st0" d="M396,176l130-20"/>
	<path class="st0" d="M796,426L676,306"/>
	<path class="st0" d="M396,181l125-25"/>
	<path class="st0" d="M796,431L671,306"/>
	<path class="st0" d="M396,186l120-30"/>
	<path class="st0" d="M796,436L666,306"/>
	<path class="st0" d="M396,191l115-35"/>
	<path class="st0" d="M796,441L661,306"/>
	<path class="st0" d="M396,196l110-40"/>
	<path class="st0" d="M796,446L656,306"/>
	<path class="st0" d="M396,201l105-45"/>
	<path class="st0" d="M796,451L651,306"/>
	<path class="st0" d="M396,206l100-50"/>
	<path class="st0" d="M796,456L646,306"/>
	<path class="st0" d="M396,211l95-55"/>
	<path class="st0" d="M796,461L641,306"/>
	<path class="st0" d="M396,216l90-60"/>
	<path class="st0" d="M796,466L636,306"/>
	<path class="st0" d="M396,221l85-65"/>
	<path class="st0" d="M796,471L631,306"/>
	<path class="st0" d="M396,226l80-70"/>
	<path class="st0" d="M796,476L626,306"/>
	<path class="st0" d="M396,231l75-75"/>
	<path class="st0" d="M796,481L621,306"/>
	<path class="st0" d="M396,236l70-80"/>
	<path class="st0" d="M796,486L616,306"/>
	<path class="st0" d="M396,241l65-85"/>
	<path class="st0" d="M796,491L611,306"/>
	<path class="st0" d="M396,246l60-90"/>
	<path class="st0" d="M796,496L606,306"/>
	<path class="st0" d="M396,251l55-95"/>
	<path class="st0" d="M796,501L601,306"/>
	<path class="st0" d="M396,256l50-100"/>
	<path class="st0" d="M796,506L596,306"/>
	<path class="st0" d="M396,261l45-105"/>
	<path class="st0" d="M796,511L591,306"/>
	<path class="st0" d="M396,266l40-110"/>
	<path class="st0" d="M796,516L586,306"/>
	<path class="st0" d="M396,271l35-115"/>
	<path class="st0" d="M796,521L581,306"/>
	<path class="st0" d="M396,276l30-120"/>
	<path class="st0" d="M796,526L576,306"/>
	<path class="st0" d="M396,281l25-125"/>
	<path class="st0" d="M796,531L571,306"/>
	<path class="st0" d="M396,286l20-130"/>
	<path class="st0" d="M796,536L566,306"/>
	<path class="st0" d="M396,291l15-135"/>
	<path class="st0" d="M796,541L561,306"/>
	<path class="st0" d="M396,296l10-140"/>
	<path class="st0" d="M796,546L556,306"/>
	<path class="st0" d="M396,301l5-145"/>
	<path class="st0" d="M796,551L551,306"/>
	<path class="st0" d="M396,306V156"/>
	<path class="st0" d="M796,556L546,306"/>
</g>
</svg>
